#!OML:ASF F:\VICON\USERDATA\INSTALL\rory3\rory3.ASF
:FULLY-SPECIFIED
:DEGREES
209
root -0.104271 17.9352 -0.412321 2.77277 -10.4811 2.35391
lowerback -1.20531 -1.87599 -4.74989
upperback -1.66427 -2.46679 3.2
thorax -0.6992 -1.17646 5.965
lowerneck -31.5703 -0.829985 -8.54513
upperneck 2.08137 1.31239 6.36755
head 5.25369 1.06047 3.62612
rclavicle -3.52035e-014 -1.59028e-014
rhumerus -32.246 -0.572494 -80.2109
rradius 30.5283
rwrist 19.868
rhand -18.0024 8.75023
rfingers 7.12502
rthumb 8.26802 -21.068
lclavicle -3.52035e-014 -1.59028e-014
lhumerus 55.2381 7.22953 48.8761
lradius 99.3096
lwrist -16.421
lhand -46.7238 21.2142
lfingers 7.12502
lthumb -19.4417 50.2623
rfemur -7.87494 9.02706 13.8854
rtibia 26.4139
rfoot -18.1409 -3.0146
rtoes 3.74692
lfemur 2.8524 -2.03481 -23.1638
ltibia 9.34175
lfoot -10.2866 6.44866
ltoes -13.3431
210
root -0.105552 17.9368 -0.414782 2.75964 -10.4861 2.34053
lowerback -1.17832 -1.8721 -4.75547
upperback -1.6893 -2.46257 3.2234
thorax -0.739608 -1.17233 5.99448
lowerneck -31.5049 -0.857308 -8.52379
upperneck 2.01087 1.27005 6.32304
head 5.22535 1.03605 3.60071
rclavicle 5.90018e-014 4.77083e-015
rhumerus -32.3147 -0.54328 -80.1977
rradius 30.5499
rwrist 19.9029
rhand -18.0882 8.68385
rfingers 7.12502
rthumb 8.18522 -21.1376
lclavicle 5.90018e-014 4.77083e-015
lhumerus 55.2101 7.29208 48.983
lradius 99.3188
lwrist -16.6529
lhand -46.5366 21.4595
lfingers 7.12502
lthumb -19.2617 50.5256
rfemur -7.8599 9.09849 13.915
rtibia 26.3946
rfoot -18.1679 -3.06468
rtoes 3.61549
lfemur 2.85267 -2.02862 -23.1332
ltibia 9.3428
lfoot -10.3116 6.38261
ltoes -12.7493
211
root -0.106778 17.9357 -0.414796 2.74233 -10.5308 2.30742
lowerback -1.19845 -1.83263 -4.71741
upperback -1.6941 -2.4092 3.22253
thorax -0.742159 -1.14569 5.9721
lowerneck -31.432 -0.886144 -8.52043
upperneck 1.94447 1.22389 6.35489
head 5.19789 1.01648 3.60365
rclavicle 5.02552e-015 4.77083e-015
rhumerus -32.4236 -0.603305 -80.1913
rradius 30.6486
rwrist 19.937
rhand -18.1239 8.57566
rfingers 7.12502
rthumb 8.15078 -21.2471
lclavicle 5.02552e-015 4.77083e-015
lhumerus 55.2922 7.33371 49.063
lradius 99.2932
lwrist -16.602
lhand -46.432 21.1923
lfingers 7.12502
lthumb -19.1612 50.2684
rfemur -7.82974 9.11636 13.9549
rtibia 26.3751
rfoot -18.1506 -3.03378
rtoes 3.70992
lfemur 2.89501 -1.98118 -23.0945
ltibia 9.31952
lfoot -10.3386 6.38209
ltoes -12.5667
212
root -0.107576 17.9363 -0.414759 2.75074 -10.5288 2.3036
lowerback -1.21723 -1.81675 -4.72631
upperback -1.71789 -2.38721 3.24249
thorax -0.758104 -1.13342 5.99845
lowerneck -31.3884 -0.911674 -8.57662
upperneck 1.89569 1.20503 6.39463
head 5.17738 1.01016 3.62246
rclavicle -2.69974e-014 1.11319e-014
rhumerus -32.5083 -0.64961 -80.1219
rradius 30.6733
rwrist 19.9434
rhand -18.0313 8.52099
rfingers 7.12502
rthumb 8.24011 -21.2983
lclavicle -2.69974e-014 1.11319e-014
lhumerus 55.3396 7.37303 49.1044
lradius 99.1818
lwrist -16.5497
lhand -46.4434 20.8876
lfingers 7.12502
lthumb -19.1721 49.9627
rfemur -7.8306 9.07788 13.9588
rtibia 26.3597
rfoot -18.108 -3.02326
rtoes 3.74491
lfemur 2.90936 -1.9831 -23.0863
ltibia 9.2771
lfoot -10.3157 6.37561
ltoes -12.7061
213
root -0.108128 17.937 -0.416287 2.74579 -10.5267 2.3465
lowerback -1.22052 -1.81547 -4.77635
upperback -1.71154 -2.38512 3.25673
thorax -0.747548 -1.13232 6.04183
lowerneck -31.407 -0.923596 -8.64071
upperneck 1.83146 1.21252 6.42549
head 5.15753 1.01649 3.64333
rclavicle 3.98315e-014 -1.19271e-014
rhumerus -32.4191 -0.671171 -80.0595
rradius 30.5458
rwrist 19.9306
rhand -18.0135 8.49682
rfingers 7.12502
rthumb 8.25731 -21.3218
lclavicle 3.98315e-014 -1.19271e-014
lhumerus 55.3836 7.44859 49.1524
lradius 99.1177
lwrist -16.5266
lhand -46.5003 20.5886
lfingers 7.12502
lthumb -19.2269 49.6582
rfemur -7.83016 9.11069 13.9143
rtibia 26.3444
rfoot -18.0947 -3.04199
rtoes 3.85887
lfemur 2.91474 -1.98691 -23.1275
ltibia 9.23927
lfoot -10.297 6.37268
ltoes -12.7505
214
root -0.10828 17.9373 -0.414485 2.74027 -10.5393 2.33806
lowerback -1.30297 -1.81208 -4.74286
upperback -1.658 -2.37762 3.2594
thorax -0.648123 -1.13334 6.02145
lowerneck -31.5386 -0.936167 -8.71612
upperneck 1.86974 1.22241 6.53107
head 5.18583 1.031 3.69447
rclavicle -1.5381e-014 7.15625e-015
rhumerus -32.3225 -0.794532 -80.0204
rradius 30.4718
rwrist 20.0471
rhand -17.9715 8.5504
rfingers 7.12502
rthumb 8.29786 -21.2666
lclavicle -1.5381e-014 7.15625e-015
lhumerus 55.4593 7.51204 49.1816
lradius 99.1109
lwrist -16.2627
lhand -46.7175 20.4884
lfingers 7.12502
lthumb -19.4357 49.537
rfemur -7.80839 9.09162 13.9204
rtibia 26.3315
rfoot -18.1063 -2.99862
rtoes 3.74487
lfemur 2.98002 -1.97297 -23.1227
ltibia 9.14975
lfoot -10.2441 6.38546
ltoes -12.8986
215
root -0.107836 17.9368 -0.412488 2.74462 -10.5307 2.35567
lowerback -1.35352 -1.81799 -4.73348
upperback -1.65016 -2.3837 3.25032
thorax -0.611524 -1.13785 6.00445
lowerneck -31.6108 -0.930959 -8.71832
upperneck 1.92237 1.22862 6.58594
head 5.21209 1.0393 3.71591
rclavicle 4.85842e-014 3.18055e-015
rhumerus -32.3221 -0.840697 -80.012
rradius 30.4531
rwrist 20.1131
rhand -17.8761 8.5078
rfingers 7.12502
rthumb 8.38987 -21.3056
lclavicle 4.85842e-014 3.18055e-015
lhumerus 55.5143 7.55317 49.1931
lradius 99.1309
lwrist -15.9119
lhand -47.0467 20.5903
lfingers 7.12502
lthumb -19.7522 49.6067
rfemur -7.80258 9.05006 13.8946
rtibia 26.3286
rfoot -18.1119 -2.95181
rtoes 3.79697
lfemur 3.034 -1.98188 -23.1501
ltibia 9.05207
lfoot -10.1898 6.37652
ltoes -13.0637
216
root -0.107726 17.938 -0.412056 2.78244 -10.5222 2.37678
lowerback -1.35758 -1.83141 -4.74293
upperback -1.69408 -2.40148 3.26325
thorax -0.651294 -1.14433 6.02399
lowerneck -31.538 -0.926546 -8.74623
upperneck 1.82093 1.23615 6.62749
head 5.16882 1.04621 3.73307
rclavicle 6.73321e-014 -2.06736e-014
rhumerus -32.367 -0.811884 -79.9804
rradius 30.441
rwrist 20.1616
rhand -17.8523 8.53679
rfingers 7.12502
rthumb 8.41283 -21.2757
lclavicle 6.73321e-014 -2.06736e-014
lhumerus 55.5007 7.64025 49.2721
lradius 99.2033
lwrist -16.039
lhand -47.0507 20.708
lfingers 7.12502
lthumb -19.756 49.724
rfemur -7.84933 8.99762 13.8607
rtibia 26.3289
rfoot -18.1036 -2.92822
rtoes 3.70014
lfemur 3.02372 -1.99297 -23.1734
ltibia 8.98708
lfoot -10.1474 6.37028
ltoes -13.131
217
root -0.107561 17.9371 -0.412717 2.78861 -10.5392 2.40816
lowerback -1.35447 -1.84268 -4.77431
upperback -1.68308 -2.41643 3.28747
thorax -0.6374 -1.15221 6.067
lowerneck -31.5975 -0.923782 -8.73832
upperneck 1.71556 1.24918 6.56947
head 5.14027 1.04889 3.71316
rclavicle -1.32378e-014 5.56597e-015
rhumerus -32.3094 -0.745718 -79.9513
rradius 30.4163
rwrist 20.167
rhand -17.8647 8.5106
rfingers 7.12502
rthumb 8.40095 -21.3023
lclavicle -1.32378e-014 5.56597e-015
lhumerus 55.5417 7.8319 49.3791
lradius 99.2129
lwrist -16.4188
lhand -46.7965 20.8072
lfingers 7.12502
lthumb -19.5117 49.8481
rfemur -7.88381 8.96477 13.8183
rtibia 26.3481
rfoot -18.1009 -2.90452
rtoes 3.54152
lfemur 3.03903 -1.97752 -23.2077
ltibia 8.92689
lfoot -10.0978 6.36097
ltoes -13.0716
218
root -0.108038 17.936 -0.414105 2.73838 -10.5515 2.41468
lowerback -1.29833 -1.83859 -4.78314
upperback -1.64034 -2.41294 3.30351
thorax -0.624208 -1.15181 6.09003
lowerneck -31.7988 -0.930291 -8.71803
upperneck 1.74146 1.25155 6.53846
head 5.1739 1.04961 3.70282
rclavicle -6.28719e-014 3.18055e-015
rhumerus -32.2513 -0.734584 -79.9203
rradius 30.4218
rwrist 20.1491
rhand -17.8856 8.44339
rfingers 7.12502
rthumb 8.38075 -21.3703
lclavicle -6.28719e-014 3.18055e-015
lhumerus 55.6172 7.97246 49.4632
lradius 99.2022
lwrist -16.6793
lhand -46.5823 21.2104
lfingers 7.12502
lthumb -19.3057 50.2721
rfemur -7.8492 8.99029 13.8215
rtibia 26.3735
rfoot -18.0852 -2.8992
rtoes 3.57238
lfemur 3.11662 -1.96227 -23.2181
ltibia 8.8749
lfoot -10.0815 6.37385
ltoes -13.2353
219
root -0.108509 17.9351 -0.414386 2.70668 -10.54 2.45508
lowerback -1.29963 -1.84062 -4.809
upperback -1.60518 -2.41543 3.29346
thorax -0.586208 -1.15495 6.09333
lowerneck -31.8644 -0.951204 -8.82136
upperneck 1.6737 1.25291 6.69332
head 5.15948 1.0643 3.772
rclavicle 1.01442e-014 7.95139e-016
rhumerus -32.2283 -0.742984 -79.9082
rradius 30.4486
rwrist 20.1349
rhand -17.8137 8.46236
rfingers 7.12502
rthumb 8.45011 -21.3486
lclavicle 1.01442e-014 7.95139e-016
lhumerus 55.6817 8.08279 49.5449
lradius 99.2484
lwrist -16.86
lhand -46.4433 21.4967
lfingers 7.12502
lthumb -19.172 50.5717
rfemur -7.82724 8.99491 13.786
rtibia 26.3877
rfoot -18.0743 -2.87542
rtoes 3.73489
lfemur 3.14183 -1.97381 -23.2582
ltibia 8.87797
lfoot -10.0958 6.39579
ltoes -13.311
220
root -0.109689 17.9352 -0.415183 2.70492 -10.5709 2.4518
lowerback -1.31444 -1.82065 -4.79601
upperback -1.57273 -2.38822 3.27815
thorax -0.549316 -1.1434 6.06904
lowerneck -31.9057 -0.974425 -8.88267
upperneck 1.5499 1.23605 6.8391
head 5.12538 1.0701 3.82834
rclavicle -3.79151e-014 -7.95139e-015
rhumerus -32.1918 -0.839558 -79.897
rradius 30.4457
rwrist 20.1949
rhand -17.7269 8.54378
rfingers 7.12502
rthumb 8.53385 -21.2638
lclavicle -3.79151e-014 -7.95139e-015
lhumerus 55.7953 8.17411 49.6117
lradius 99.2531
lwrist -16.9588
lhand -46.4522 21.356
lfingers 7.12502
lthumb -19.1806 50.4302
rfemur -7.84207 9.01975 13.7964
rtibia 26.3943
rfoot -18.0822 -2.92683
rtoes 3.43875
lfemur 3.1288 -1.94234 -23.2534
ltibia 8.91022
lfoot -10.1526 6.3985
ltoes -13.2445
221
root -0.110715 17.936 -0.416452 2.74428 -10.5867 2.38527
lowerback -1.30772 -1.81545 -4.73908
upperback -1.55754 -2.38185 3.3032
thorax -0.539396 -1.14132 6.06286
lowerneck -32.067 -0.987421 -8.84458
upperneck 1.53244 1.21957 6.82256
head 5.14127 1.06319 3.81684
rclavicle 2.05307e-015 8.74653e-015
rhumerus -32.1654 -0.835708 -79.8908
rradius 30.5092
rwrist 20.3098
rhand -17.7519 8.4526
rfingers 7.12502
rthumb 8.50975 -21.3559
lclavicle 2.05307e-015 8.74653e-015
lhumerus 55.8898 8.29666 49.62
lradius 99.2069
lwrist -16.9689
lhand -46.7078 21.1907
lfingers 7.12502
lthumb -19.4263 50.2403
rfemur -7.86951 9.05232 13.8664
rtibia 26.3931
rfoot -18.1046 -2.92128
rtoes 3.76597
lfemur 3.08752 -1.92533 -23.1685
ltibia 8.92853
lfoot -10.1847 6.34661
ltoes -13.036
222
root -0.111898 17.9354 -0.41911 2.725 -10.584 2.3981
lowerback -1.22518 -1.81202 -4.76939
upperback -1.56322 -2.38012 3.3146
thorax -0.590219 -1.13842 6.09529
lowerneck -32.1735 -1.00544 -8.81997
upperneck 1.52174 1.19754 6.80276
head 5.15282 1.05239 3.80492
rclavicle -3.1175e-014 1.11319e-014
rhumerus -32.2102 -0.759807 -79.8841
rradius 30.6211
rwrist 20.3579
rhand -17.8123 8.29306
rfingers 7.12502
rthumb 8.45148 -21.5178
lclavicle -3.1175e-014 1.11319e-014
lhumerus 55.9195 8.33147 49.5471
lradius 99.152
lwrist -16.7365
lhand -47.3031 20.8644
lfingers 7.12502
lthumb -19.9986 49.8553
rfemur -7.8473 9.01173 13.8587
rtibia 26.3737
rfoot -18.0892 -2.89374
rtoes 3.9672
lfemur 3.05687 -1.92785 -23.1682
ltibia 8.99738
lfoot -10.1984 6.32584
ltoes -12.844
223
root -0.112745 17.9361 -0.421532 2.71556 -10.5738 2.41409
lowerback -1.17534 -1.79968 -4.78205
upperback -1.58267 -2.36544 3.29528
thorax -0.640671 -1.12888 6.08465
lowerneck -32.2228 -1.03183 -8.77405
upperneck 1.54957 1.14739 6.82242
head 5.17267 1.03087 3.7994
rclavicle -2.33261e-015 1.59028e-015
rhumerus -32.383 -0.629153 -79.9437
rradius 30.7744
rwrist 19.9785
rhand -17.8002 8.19541
rfingers 7.12502
rthumb 8.46318 -21.615
lclavicle -2.33261e-015 1.59028e-015
lhumerus 55.9472 8.27902 49.4109
lradius 99.0943
lwrist -16.2721
lhand -47.9257 20.3469
lfingers 7.12502
lthumb -20.5971 49.2741
rfemur -7.83929 9.0113 13.8494
rtibia 26.3517
rfoot -18.1173 -2.90647
rtoes 3.90348
lfemur 3.00869 -1.93822 -23.1758
ltibia 9.07488
lfoot -10.2391 6.34473
ltoes -12.8173
